/* XPM */
static char *b65c5cd25fb54007e0b8c16037ebe3fdWHkCEpBOzegPh8qL[] = {
/* columns rows colors chars-per-pixel */
"64 64 48 1 ",
"  c black",
". c #B33831",
"X c #CFC8AF",
"o c #ECD6AA",
"O c #E4DBBD",
"+ c #8BDFFF",
"@ c #8DE0FF",
"# c #94E2FF",
"$ c #9CE4FF",
"% c #A3E6FF",
"& c #AAE7FF",
"* c #ADE8FF",
"= c #B1E7FF",
"- c #B1E9FF",
"; c #B3EAFF",
": c #B4E8FF",
"> c #B7EBFE",
", c #B7EBFF",
"< c #BBEBFF",
"1 c #BFEBFF",
"2 c #BAECFE",
"3 c #BEEDFF",
"4 c #C2ECFE",
"5 c #C2ECFF",
"6 c #C6EDFF",
"7 c #C4EFFF",
"8 c #C7EEFE",
"9 c #C8EFFE",
"0 c #CAEEFF",
"q c #CDEFFF",
"w c #D1EFFF",
"e c #C8F0FF",
"r c #CEF0FF",
"t c #D1F1FF",
"y c #D3F2FF",
"u c #D4F1FF",
"i c #D6F3FF",
"p c #D8F2FF",
"a c #DCF3FF",
"s c #D9F4FF",
"d c #DFF5FF",
"f c #E0F4FF",
"g c #E0F5FF",
"h c #E2F5FE",
"j c #E4F7FF",
"k c #E7F7FF",
"l c #EAF7FF",
"z c #EAF8FF",
/* pixels */
"3,3<&8pu8,<-&3t7-<0uhu8>*%%&#@@8&>>>**%$-&#%2-%$$%$#&0ikkzl5%5e8",
"%%<8qtw5--<*$5r2%%*<ru5&*&%%$%%,2&-5353&,*%%,2&#$*-28psuuup&&0e,",
"$%5wu0=-&&-%%-55-%%**-&$%&$$$$$*-*>>*483,-*&&*&*550ttr03<8e-&5<%",
"%$8uq&$,-*<-%%3e,$,,%%%%*%$#@#%8>%3>$-3>-,511<<8ir808<%,085-%%$%",
"%*qw1$$*2---&%>51&-5,%&&-%@@$$*75,85-03*&0ut013rr7<,-,-3r5*%$%$%",
"$<t5%##&85&%%*3e8,*3,%&%$$#@$%2tuttt573*,8r08<<35-%&&-<-3<*%$%#$",
"%1t2#@$,52%$%,205,-&%&*$##$%-87shdtq813<<,,&2585*%%*&&%$-<&%%$#%",
"%8r,%%,5*$*%$&*283,%%**%%5e05e0tsq3,,=-<2*$#%-502$$$&%##-3&&-#$%",
"%55%,805>&-*$$*0ur3-133*2tt5<-$,<%$#%>22<&$#@#-5803%$#@$,<&,-#$&",
"*,-$*0tse-&&*%&8ur315070ee5&%$$&%@@#$-ru<&%##$%<tds0*#$-,-,-%$&,",
",<-&&1tape<&&,,-58553er53-$$##*-$$%$%*rp          uputt0=&3-#%33",
"88-&&&,3erp8&,-%%232,8t5%$#@$%--$%&&&*5r          30ahha3<83-1q<",
"tu<%$$#%%-rr05*$%,-$%5ut%##$&%,,%$*2    OOOOOOOOOO  3qtt<,44qtuu",
"jt-$$%$##%28uu3,*--%%-rp5$%&%%-*#%50    OOOOOOOOOO  32-&,,,4qpph",
"h0%%%$###&--0ut0-**-*%1r0<-*%->$    OOOO..........OO  &*1433tpdj",
"t*&%$@#@$&&%*3rr5-3e5-&8rt011352    OOOO..........OO  8008rssuth",
"q4%$@#@#%&$#$8ut00505535thdt25  OOOO................OO  t0thjute",
"w4&$$##$%%#$&edt00052tptpdjs00  OOOO................OO  50tuuutu",
"t&%%%%#$$$$&*0tr38033rrtut0e  OO......................OO  80tush",
"7*$#$$#$$&205230523812%-803%  OO......................OO  3rtsuu",
"75*$###%-3r75-*8r5805%%30t  OO............OOOOOO......OOOO  0<35",
"3005-*%*25532-585075-**0tu  OO............OOOOOO......OOOO  -%&,",
"*0uspppr3,*->503253&&<5t  OO..............OOXXOOOO......OO    5-",
"->0uzljhr<&%3702*-*%-33t  OO..............OOXXOOOO......OO    5,",
"&--eudpu                OO................OOOOOO........OO    %$",
"%-3350t0                OO................OOOOOO........OO    ##",
",&-2*<  OOOOOOOOOOOOOOOO................OO............OO  XX  %-",
"%#%%%,  OOOOOOOOOOOOOOOO................OO............OO  XX  %*",
"@###  OO....OOOOOOOOOO..............OOOO............OO  XXXX  $#",
"@###  OO....OOOOOOOOOO..............OOOO............OO  XXXX  #@",
"@%  OO..............OOOOOOOOOOOOOOOO..............OO  XXXXXX  %@",
"@%  OO..............OOOOOOOOOOOOOOOO..............OO  XXXXXX  *@",
"      ........................OO................OO  XXXXXXOO  @e",
"      ........................OO................OO  XXXXXXOO  %>",
"  OO  oo....................OO............OOOO    XXXXXXOO  #$$-",
"  OO  oo....................OO............OOOO    XXXXXXOO  @#%7",
"  OOXX  ooOO................OO........OOOOOO  XXXXXXXXOOOO  $$*e",
"  OOXX  ooOO................OO........OOOOOO  XXXXXXXXOOOO  $%*3",
"  OOXXXX    ooooooOO........oo......OOOO    XXXXXXXXXXOO  #$$%*5",
"  OOXXXX    ooooooOO........oo......OOOO    XXXXXXXXXXOO  *-%%%5",
"2&  OOXXXXXX      XXooOOOOOOOOOOOO      XXXXXXXXXXOOOO  &>>%$@#>",
"$#  OOXXXXXX      XXooOOOOOOOOOOOO      XXXXXXXXXXOOOO  %*%@@@$&",
"$%%$  OOOOXXXXXXXX                XXXXXXXXXXXXOOOOOO  3*%$#@@#&*",
"$%%&  OOOOXXXXXXXX                XXXXXXXXXXXXOOOOOO  3,$##@$%--",
"%$*>*&  OOOOXXXXXXXXXXXXXXXXXXXXXXXXXXXXXXXXOO      %<05$$#$%%2>",
"#%50,%  OOOOXXXXXXXXXXXXXXXXXXXXXXXXXXXXXXXXOO      %&8r,$%&&%-*",
"&7r5*$%<    OOOOXXXXXXXXXXXXXXXXXXXXXXOOOO    iu,&*,&&1q8--&&->$",
"ih03--&3    OOOOXXXXXXXXXXXXXXXXXXXXXXOOOO    eit2<88-&8ru0,2352",
"jh522,-3-&,*    OOOOOOOOOOOOOOOOOOOOOO    $##%,8tte05515thdt35td",
"d732,-&-,&5,    OOOOOOOOOOOOOOOOOOOOOO    #$%&,,<0851uuusdds8ekh",
"3<-&*&$%&*83%%-,                      #$$$$&&,<,-*230trttt08qdds",
"--*%$#@$&&58&&,3                      #$$&<84*%28--55<%-005%8hp2",
"%%%$#@@$&%>73&-30r2&#%508<3q83etue,$##$%-5ee5**80853-$%30t0-3q8&",
"-%#@@@@#%%&38<<55,%#%<33,,,5=%-5rtq5<&%&<555<*5850e3%%*0rtr*&&,5",
"2$@@@@@#%%&50053,%$#*3-*-<-1885--0dhhupr5,*-<181,53&*,1tss5&%$$1",
"&%#@@@@@*>30r81,%$&,,*%*-*%-8e5,-20pzzlde2&%,08,&-&%,31utq8--$%%",
"$$%+@@+@%3283=&*-<,-*%%*;&*;**%$&--0tsau5,-,<81,&&%%&%&8r08-,%$%",
"##&$@@@#%&-83%-553&##%-&%;>-%$@#%-235rt05233,11,-&&$###1553%*$#%",
"##<81$@@%&28,<et5%+@%,*$$>>&%%%>,*,,*<31<370&,<,2-&%##+,7r8**$$%",
"%%1tt0--357q0sr5&#@$&&$@$*2-**%*%#%%%-,-*2e5%%&%&,53&$#%tt5<*%$&",
"%%*1qtttpddpaht1%%&*&$@#%>22*%$#@####*--,2e5#%$@#*51,&$&wq2>&$*-",
"%-,800wthkdiadu05qtt0558ee05>%#@@####$$%-50,%%$@$%*,,1<5q050835*",
"*3581,0uuhr0tdu80tdtuuetrr7re>%@@$######$2,&*%@$%%%%%<0upushsrr-",
"8555&%8ut5,<2rr30tpdr022-&-57--@#%%$#%$@&,$%-%$%%%%#$<taljjhe555"
};
