/* XPM */
static char *e3dab095354b42e7d6a5ba3d22995ee5lInbOAJhA13e022H[] = {
/* columns rows colors chars-per-pixel */
"64 64 44 1 ",
"  c black",
". c #403424",
"X c #8BDFFF",
"o c #8DE0FF",
"O c #94E2FF",
"+ c #9CE4FF",
"@ c #A4E5FF",
"# c #AAE7FF",
"$ c #ADE8FF",
"% c #B1E7FF",
"& c #B1E9FF",
"* c #B4E8FF",
"= c #B4EBFF",
"- c #B6EBFF",
"; c #B7EBFF",
": c #B8EBFE",
"> c #BBEBFF",
", c #BCEBFF",
"< c #BAECFE",
"1 c #BEEDFF",
"2 c #C1ECFE",
"3 c #C1ECFF",
"4 c #C2ECFE",
"5 c #C1EEFF",
"6 c #C6EDFF",
"7 c #C7EEFE",
"8 c #C8EFFE",
"9 c #CAEEFF",
"0 c #CDEFFF",
"q c #D1EFFF",
"w c #C9F0FF",
"e c #CEF0FF",
"r c #D2F1FF",
"t c #D2F2FF",
"y c #D4F1FF",
"u c #D7F3FF",
"i c #D8F2FF",
"p c #DAF3FE",
"a c #DBF4FF",
"s c #DDF4FF",
"d c #E2F5FE",
"f c #E4F7FF",
"g c #EAF7FF",
"h c #EAF8FF",
/* pixels */
"1;1>#7ii7;>&#1r7&>9ysy3;$@@#Ooo8#--<$$@+&$O@;&@++@+O#9ydfhh3@103",
"@@>70q03&&>$+3e;@@$>ry3$&#@@++@<<$&313<$;$@@;<#O+$&<7isyyyi&#9e;",
"@@3qy9$&##&@+-33&@@$$&#+@#+++++$=#&-$>71>&&##&#$337rrew,13e&#3>+",
"@+7y0$+;&$>&@@1w;+;;@@@@$@+OoO@3-#1<+;,;&,,,>>>7ye799>@;991&@@@@",
"@#0q,++$1&;&#@<3>%&3;@##$@oOO+$w3;73;31$$7qr...eew>;&;&1e3#@+@+@",
"+>r3@OO#71#@@$1w7;$1;@#.@+oo+#<ryerr3w,$;70....11&@#$&>&1<#@+@O+",
"+3r<Oo+>2>@O@&<93<&$@#....+@&3wadsre713>;>;..773$#@#$#@+&>$@@+O@",
"@7e;@@;3$+$@@#$<71&@@$$....737weae,>;%&>>$+..&39;+O@#+OO$3#$$O+@",
"@33@;373;#&&++$9y0,;>,<$>...>&+>>@+O@;>>&#+.....993@+Oo+>>$&&O+#",
"$>%+&9ysw&@#$@#7y03,30ww9w...++#+OOo+$rr1$@.....raa9$O+&;;;&@+$;",
";>&##1ysyw,#$;;&17333we31&+...$........i,@...#@>7ryyieew$#1&O@1,",
"77&$@$;,wei9$;$@#,1;&9r3@+Oo................@;&11&19sdds1;71;,0,",
"yy;@+OO@@&ee93$+@;&+@3yr@OO+................+@#;>#$&10rq>;739ryy",
"fr&++@+OO@>7rr,;$&&@@&ei1+@$....      ....;$+O+$>;$$>>$$;;;,0isd",
"d9@@@+OOo$&&wyr9&$&&$@,r9;%$...       ....3&+O+$>,;;,>#$>711yiif",
"q;@@+OOo+##@$1ee1;<73&$70y9....       ....,&+OO@,,>;;17903esiyys",
"0,@+ooOO##+O@7ir973w33,3rs....         ....#OO@;>>&$;3eir9edfyrw",
"r2#++OO+@+OO@wsr7e91>yiya...           ....;+@$&;>;>37e03wryirry",
"r#@@@@O++++#&9ye19911rer....           ....1@@&>3e9311;&;;79eyis",
"9$+O++O++#<73<173<191&@....             ...7$#&1rae3$&&17>,eraya",
"w3&+OOO@&1ew3&$797793@.....             ....>#&1ew>#O@397>107<37",
"1w73&#@$1331--3739w1;$....               ...7>>33;@O+>31;&>3&+#;",
"$7risiyy1..&..91;71##....                ...0931&@++..&$&;;<783&",
"&-7yhhfs......7>#&#@....                  ...71;@+$....$&$@$7e3;",
"#$&9yssy7;.....;##.....                    ...$$$>...@@$;#$&$#@+",
"@-111er7111,;..&......                     .....31..O@&##$;;@+oO",
"-$&-$<1<>170<.........                      .....@..@;$++&;#@@@;",
"@O@@@&&&$;re&#.......                        .......#$+o+$;&$$#$",
"oOOO+$;&;,yy@+.....                            ....&#+oO@-<<$@+O",
"XOOOO+++&7i9$.....                             ....r77377773<@Oo",
"X@+OOOOO@9e<&....                               ...yryeeeewe8;#o",
"o@@OO@+O1r7&....                                 ..ae7--&#-33&$o",
"#;;;$$@@ry;#....                                 ..asi931#@#Ooow",
"<#&3,3,$wr>.....                                 ..>rye3r7#@++@;",
";#&>&,71<>>.....                                  .<13-1w1@O+++&",
";#1;+>1;&;1.....                                  ..-&193$+OoO@3",
"3;793r3$>ey.....                                  ..1<73&@OoO+&w",
"9errer3.........                                  ..3;>#@+oo+@$1",
"ryre7,..........                                  ..#$$+OOO+@@#3",
"r71>;$;>1$+O@...                                 ...@&$@+@$$@@@3",
"<@+O@;<<&$+XX+...                                ...$<>$#;&@+oO-",
"@OoO+&rr>$@OO+....                              .....33&#$@Ooo+#",
"++@+@$es>@+O@#@....                             ......1$++OooO#$",
"+@#@$$39;@+O@&&3....                           ....;&<1;+OOo+@-&",
"@+$;$#;3>#@@+@#;<...                           ....+@;93@OO+@#--",
"+@37;@#;>1<#+O+$>....                         ....&@@&7e&+@#@@=$",
"@7e3#@@>793$+O@#>>...                         ...#$&&@,q7-&$#&&+",
"as9>&$$1111$+OO@<3...                         ...1173%$7erw-<33<",
"da3<<;$<&#;$OO@&>>...                        ....rww3313rddr<3es",
"se<<;;$&;$3;+@$&<<....              .       .....973,yiyasda7wff",
"1<&#&#++$$71@#&>1r.....           ...............$119reryr970sda",
"&&&@+Oo+@#37##&1rye................................33>@&793@7di;",
"@@#+Ooo@@@;7<#.........................+&3...........+@17r9&1r7$",
"$@OooooO@@#17.......+>31>.......wyr7;#@$>331>&3......@$9ry0#$@;>",
"1+oooooo@@#3...1;@+O&1&$$>&..............;$&;.........3ria7#@++,",
"#+Oooooo$>17..1;@+#;;$@#&$#&7w3.................$&#@...iy03;$+@#",
"+@+XooXo#><71&#$&>;&#@@$&#$=$#@+#$&9ysiy......,>##@@#...w77&;@+@",
"OO#@oooO@#&71@&131@+O@&##&-=@+oO@&>13er9111,>1,%&##+OX+>371@$+O@",
"OO>7,@oo@$<7;>er3@Xo@;$++&-#@@@;;$;;$>1<,173$;>;>$#@+OX;9e7$$++@",
"+@>eq7&&<3970yr1#OOO#$+X+$--$$@$@O@@@&;&$;w7@@#@#>,>#+O@ee3<$@+#",
"@@&>0rrrsssisdr>@@#$$+oO@-<<$@+Ooo+OO&&&;<w3O@+oO$3,;$+#00>;#+$;",
"@&;799qrdfdissi930rr93178873;#OooOOoO+@+&39;@@OO+@$;;,>30939711$",
"#139,;7yise9yay77ysyyywreewew;@oo++OO+OO+<<#$@OO@@@@@>9ysqsdie0&",
"9733#@7yr3;;>ee17rsaq7>;&#&31&;oO@@OO++o#;+@&@+@@@@O+>qdfffs9731"
};
