/* XPM */
static char *b2c8aa45796a46f1eac3d9800eb64b3ewU4hyFyPX1gFjaQR[] = {
/* columns rows colors chars-per-pixel */
"64 64 42 1 ",
"  c #8BDFFF",
". c #8DE0FF",
"X c #94E2FF",
"o c #9CE4FF",
"O c #A4E5FF",
"+ c #AAE7FF",
"@ c #ADE8FF",
"# c #B1E7FF",
"$ c #B2E9FF",
"% c #B1EAFF",
"& c #B4E8FF",
"* c #B4EBFF",
"= c #B7EBFF",
"- c #BBEBFF",
"; c #BCEBFF",
": c #BAECFE",
"> c #BEEDFF",
", c #BFEDFF",
"< c #C1ECFF",
"1 c #C4ECFF",
"2 c #C4EFFF",
"3 c #C7EEFE",
"4 c #CAEFFF",
"5 c #CDEFFF",
"6 c #D1EFFF",
"7 c #C8F0FF",
"8 c #C9F0FF",
"9 c #CEF0FF",
"0 c #D2F1FF",
"q c #D3F2FF",
"w c #D4F1FF",
"e c #D4F2FF",
"r c #D8F2FF",
"t c #DCF3FF",
"y c #D9F4FF",
"u c #DDF4FF",
"i c #E0F4FF",
"p c #E2F5FE",
"a c #E4F7FF",
"s c #EAF7FF",
"d c #EAF8FF",
"f c #EBF8FF",
/* pixels */
">=>-+3rw3=:$+>02=-4wur<-@OO+X..7@===@@Oo@+XO-$OooOoX+3waads<O<74",
"OO-3406<$$-@o<5>OO+-90<+$+OOooO=:@$<:<>@=@OO=:+Xo@@:3ryrwrr++47=",
"OO<6w5+$++$Oo:<<@OO@@$OOO+ooooo@=@$=+-3>=$$++$+@<<3w094;-<5$+<-o",
"Oo3w6+o=$+:$OO:7=o==OOOO@OoX.XO<=O>:o=;===;;---3w9344-O=44<$OOOO",
"O+56;oo@:$$$+O:<>$$<=O++@O..oo@2<=3<=<>++3w04;;907-=$=$>9<+OoOoO",
"o-0<OXX+3<+OO@>73=+>$O+OOoX.oO>0w900<7>$=3943--<>$O++==@>:@OoOXo",
"o<0:X.o-<:OoO=-3<:$@O@@oXXoO$<0yiu093;;;--=+-<3>+OO@++Oo$-+OOoXO",
"O39=OO=<@o@Oo+@:3>$OO@@OO>73<2<0y0;-=#=--@oXO$37-ooo+oXo$>++$XoO",
"O<<O=33<=+$$oo@7w5;$->;@:qw<:@O$-OoXO=--$+oX X@<34<OoX o=-+$$Xo+",
"@-$o@3ry7$O+@O+4w5<><54777<+Ooo+O..Xo$9w>+OXXoO;0uy4@Xo==$=$Oo@=",
"=-$O+;wty7:++==$>3<<<79<>$ooXX@$oOOoO+9y-OoXO+O:30wwr597$+>$XO>>",
"33$@++-;39r3+-$o+->=$70<OoX.oO$$oOO+@@<9=OoXO=$>>$>5uiit>=3<=-4-",
"ww=OoXXOO=997<@oO=$oO>w0OXXOO+$=Oo@>++=<-+OOOO+:-++=>500-=3340ww",
"a0$ooOoX.O:<ww>=@$$OO$0r>oO+OO$@XO<2=O@$;;-+oXo@-=++;-$+===;5rti",
"i4OOOooXX+=$4w04=+@$@O-03=$++$$o+20<@OO-34<@oXo@---=;-++-3>>0yra",
"w=OOoX. o++O+>99>$>3<$+3904>:<<-yu2>$@+>;->$XXXO-<-==>345<9yywwu",
"4;OXX.XX++oXO3rw43<7<<;<0ii0:<0uar>-:=$:$+=@XXO$-;$+=39w049paw07",
"w<+ooX.oOoXXO7u0444<;0rwruau77apu9--=$@==+>-oO@$$-=>>394<76wr00w",
"0+oOOOXoooo+$4w7;34>>09006475iiy>-=+@Ooo+$2>OO$=>04<<>=$==340wru",
"4@ooooXoo+:3<:>43=;4>$O$34>O3ur>$#$OoX.oO+<3@+=>0y9<+$$>4--90ywy",
"4<@ooXXO$>97<$+34334<OO>704$>93$OO+o...o++=3:+$>59-+XO<43->43:<3",
">74<$+O@;<<>==<4<44<$@=70w9+@+$>@OX....XOO+-3--<>=OXO-<>==-<$o+-",
"@3wytrr9>=+$=<4;=<;++=>0tr<+Ooo>>o.....XOO+<54<>$Ooo@>$+@=$>32<$",
"$=3wsdau9-+O=53=@$+O=;>0w53=@ooO+oX....X+=<253>-Oo+==@O+$+O=37<=",
"+@$4euuw7:#$-3;=++OOO++4433$=OoOoOO.....+-:3>$+@@-==+OO@=+@$$@Oo",
"O$>><902>>>>=;>=$++oX.X>3<>O@oXOXXOO....O+$7-O$><>OXXO$+O$=$OXXX",
"=+$=+:>:->35:=--:$+OoX.$473@@ooOX.:7;o..++-<=-70<O..o=@oo$=+OOO$",
"OXOOO$*$@=09$O+O@$>>+oX+053=$oO+OO:9w4$$:<444w0<+X.o+$o.O+=$$@O@",
".XXXo+$$=-wwOOo.X@<<=@o+95;=+o@$OO$;500wruurup0;OO+@+o.XO=:>@OoX",
".XXXXooO$3w4@OX.oO@$=>:<94<43<<$O$=35400papttur7<9w933<437<<=+X.",
".OoXXXX.O47>$OXoOOOOO>40r6iiw55#+><4;=30rp74wuw34wuw0w9999792=+.",
".OooXOoX>03$$OXOOOOXo*0uaast5<<<7<<<+O3w9<;=-99>30uu93==$+*<2@@.",
"@==$$@OO0w=+:$OooOoX+4waasa<+<73>=;>+3ww3*:=O<0<$>7yur4<<+O+X..7",
":@$<><<+7w:+=:+Xo+@-3trwwrr#:00=OO-3400<=$=+o<9:OO@>0r7<03+OooO=",
"=+$-@;3:=--+@$+@<330094-;37$$73+Oo<0w4#$+@$OO=<<$O$>-<=<7<OXooo$",
"$+;-o=>=$=<---;409447-O=44<$O+@=$O3w5+o=$+=$OO>7>$<<=$>2<+oX.XO<",
"<=37<93@-0wr03;997-$$=$>5<+OoOo$=-w0;oo$:$=$+O<99>-4-:3<*OX.Xo$7",
"990090<@>0yw93;<<$+O+=-@--@OoOXOO3u9#XX@33++:>409:@<<=-+Oo..oO@>",
"0w093;;-;;;=>34<@OO@@+oo$-+OOoXOo<w3+oO-<:++=<;3<:@++@@oXXXoOO+<",
"04:--+=--+oXO$<7:ooo+oXo$<++$XoOO39>$$34$o++O+@:3>-oO$@OoO@@OOO<",
":OoXO::-=+o  o@<37>OoXXo=-+$$XOOO<3=<459<:=$ooO<4;+O@::@+*$OoXX$",
"OXX.o$00;+OXXoO-0uu9$Xo+===$Oo+-$-$@>4wu0<>::O+>53=@$<<$+@O...o+",
"ooOoO@90-OoXO+O-30wup997$+>$XO>;==$+$;wtw9<<-<-=><><>>>+ooX..X+@",
"oO+O@@<9=OoXO$$<>$<0pppu>=3<$:4-33$@++-;79u0=3<@+;>=$:<=ooX.oO*@",
"Oo@=++-<;+OOoOO=-++-9000-$3<90wwww#OOXXOO-5w9>=+O=$oO-7<OXXo+O*:",
"XO<3:O+=>;-+ooo@--++34;+==$>5rupa0=ooOoXXO-4w9<:+=$OO+39=oO+OO$@",
"+79<+OO:37<@oXO+--==<3>->3><0wuai4OOOoXX +==>9ww=+@$++-02$$++$*o",
"yu4:$$+>>->$XXXO-<-==>50439yywwuw=OOoXX o++oO$7w6>:33$+3909:*<<:",
"iy<:>=$:$+=+XXO=--$+=30r940iaw074>OX.X.XO+oXoO=30074<<;30ip0:<0u",
"u9>:$=@$=+>=oO@$-:=:-395<7wwrw0w0>+ooXXoOOXXOO=$-33<;0rwruiy37aa",
">:$@$OoO@$2>O+$=<07<<--@-;0wyuyu0+OOOOooooo++=-=@@:<4090w0445upy",
"@$@OoX.oO+<4++$>0y9<+=$>3><wriyy7@oXooXoo+-3<#O-3$$<<-O$44-O3pr;",
"O++oX..oOO=7:+$>55:+XO<73->43<9007=oXXXo$<97<$+374<>$o+;304$:03+",
"$oX....XOO+>3::<<=OXO:>>=$-<@O$>7053-@O$-<<>-#33<44>OO+49w5@++=<",
">o......OO+<54<>=OoX$:$@$=$>33<*$4riirw9>=@$->4;=<>++=-0yy<+Ooo-",
"+oX.....@->353>=Oo+==@O+$@O$34<$$;4udssu9:+O=43-+$@O=>>ww53$@Oo+",
"ooo ...X+-:3>@+$$-=$+OO@=++*@+OoO$$40wuw3=@=;3<=++OO+O+4933$=OoO",
"oX+O....O+$3>O$><>OoXO$++$**Oo.XO$:><9w7>>>;=;;@$++oXXX><<>O@oXo",
"XX-3-o..O@-3=;70<O .o=@oo$*++OO*=+==@:>>;>2<#-==-@+OoX #794@@ooO",
"oO-904$$:<734r9<+X.o+$o.o@**@@+@OoOOO$$$@:73o++O+=>-+oX+09<-$oO@",
"OO@;5600tuurtiw>OO+@@o.XO=:>@+XX..oXX@$@*:7<XOo.X@<<=+o+56::+o@$",
"O$=34460iaiytur5<5094<>3233<*+X..XX.ooOo$<7-OOo.oO$$=;-<54<3<<2@",
"+><4<-3wru94wyw34wtwww9999792=O..ooXXoXXo::++O.oO+OO+-4rrwuir99$",
"73<<OO3r0<==-99>40ty03==$+$<2$$.XOOXXoo.@*oO$OoOOOoXX-6iaaau9<<>"
};
