/* XPM */
static char *_f403671e42e4db0fbda827e059dfd0bCn5l7QUBkAXSdO2a[] = {
/* columns rows colors chars-per-pixel */
"64 64 44 1 ",
"  c black",
". c gray50",
"X c #8BDFFF",
"o c #8CE0FF",
"O c #94E2FF",
"+ c #9CE4FF",
"@ c #A3E6FF",
"# c #AAE7FF",
"$ c #ADE8FF",
"% c #B1E7FF",
"& c #B3E9FF",
"* c #B8EAFF",
"= c #BBEBFF",
"- c #BCEBFF",
"; c #B8ECFF",
": c #BEEDFF",
"> c #C3C3C3",
", c #C0ECFE",
"< c #C1ECFE",
"1 c #C2ECFF",
"2 c #C1EEFF",
"3 c #C5EDFE",
"4 c #C4ECFF",
"5 c #C7EFFF",
"6 c #CAEFFF",
"7 c #CCEEFF",
"8 c #D1EFFF",
"9 c #C9F0FF",
"0 c #CFF0FF",
"q c #D3F1FF",
"w c #D4F1FF",
"e c #D6F3FF",
"r c #DAF3FF",
"t c #DCF3FF",
"y c #D9F4FF",
"u c #DFF5FF",
"i c #E0F4FF",
"p c #E2F5FE",
"a c #E4F6FF",
"s c #E4F7FF",
"d c #EBF7FF",
"f c #EAF8FF",
"g c #EBF8FF",
"h c white",
/* pixels */
":;-:#3yw1;=&#:q1%=7rrr3;$@@#Ooo9#;;&$$@+&#o@;&@++@+O#3waagd1@=63",
"@@=36qq1&&=$+10;@@$=0q-#%#@@++@;;$&1=1=$;$@#;;#O+$%=3rywwuw$#66=",
"@@18w7$&##&@+;11$@@$$$#@@#+++++$;$&;$=3:;%&##$#$113wq76==16&#==@",
"@+3w     $;%@@:5;+;;@@@    OoO@1&@:=+;-;&;=====6w0366=@&661&@#+@",
"@#0       ;&    -&          ++$91;3:;1=$%3qq0-;0q3=;$=;-01#@+@+@",
"+=   hhh                hh   @=qwqqq16=$&3703==1:;#@#$=$:=#@+@O+",
"+1  hh  h    hh    h  hh  h   0yuuq73-1=;=;#;331$@@$$#@+&=$@@+O@",
"@3  h    h  hhhhhhhhhhh    h  1qy6:=;%&==$+O@&16;+++#+O+#:##$++@",
"@1  h    hhhhhhhhhhhhhh   h   +;=@++@;==;#+XXO$139-@+OX+==#&&O+@",
"$=   h  hhhhhhhhhhhhhhhh h    +#@oOX+$qq=#@OO+@=wiy6$O+&;&;&@+#=",
";;&  hhhhhh  hhhhh  hhhhh   OO$$++@+@$qw=#+O@#@=3qwrr6q9$#-;O@:=",
"33&   hhhh    hhh    hhhh  o+#&$@@#@#$10;+++@;&::&-6iiir:;31=-6=",
"rw&   hhhhhhhhhhhhhhhhhhh  +#@;;++$;$#;1=       =#$&:7qq=;3368qw",
"aq&+  hhhhhhhhhhhhhhhhhhh   @@%$+@13;              $:=$$;;;-6rti",
"i6@@  hhhhhhhh   hhhhhhhhh   &;+#3        hhhhh       #$=1;:qyra",
"w&@@   hhhh.h     h.hhhhhh   =1       hhhhhhhhhhhhh    7730yrwwi",
"7-@OO  hhhh.h     h.hhhhhhh        hhhhhhhhhhhhhhhhhh   q60iiww9",
"w1#++  hhhh.h>> >>h.hhhhhhhh    hhhhhhhhhhhhhhhhhhhhhh  138wywww",
"q#+@@  hhhhh.>. .>.hhhhhhhhhh    hhhhhhhhhhhhhhhhhhhhh   =36wwyi",
"6$+++  hhhhh.     .hhhhhhhhhhhh   hhhhhhhhhhhhhhhhhhhhh  ;:0qyww",
"93$+O  hhhhhh.....hhhhhhhhhhhhhhh   hhhhhhhhhhhhhhhhhhh   :01;13",
":931;   hhhhhhhhhhhhhhhhhhhhhhhhhhhhhhhhhhhhhhhhhhhhhhhh  ;1&+#;",
"$3qyrr  hhhhhhhhhhhhhhhhhhhhhhhhhhhhhhhhhhhhhhhhhhhhhhhh   ;331&",
"&;3rad   hhhhhhhhhhhhhhhhhhhhhhhhhhhhhhhhhhhhhhhhhhhhhhhh  &30:;",
"@$&6wtt  hhhhhhhhhhhhhhhhhhhhhhhhhhhhhhhhhhhhhhhhhhhhhhhh  &&$@+",
"@;--:0q  hhhhhhhhhhhhhhhhhhhhhhhhhhhhhhhhhhhhhhhhhhhhhhhh  &@OoO",
";$;&$;:   hhhhhhhhhhhhhhhhhhhhhhhhhhhhhhhhhhhhhhhhhhhhhhh  ##@@;",
"@O@@@&&&  hhhhhhhhhhhhhhhhhhhhhhhhhhhhhhhhhhhhhhhhhhhhhhh  &#$#$",
"XOOO+$&&  hhhhhhhhhhhhhhhhhhhhhhhhhhhhhhhhhhhhhhhhhhhhhhh  ;$@OO",
"XXOOO++@   hhhhhhhhhhhhhhhhhhhhhhhhhhhhhhhhhhhhhhhhhhhhhh  1;#Oo",
"o@+OOOOo@  hhhhhhhhhhhhhhhhhhhhhhhhhhhhhhhhhhhhhhhhhhhhhh  01;#o",
"O@@OO@+O:  hhhhhhhhh hhhhhhhhhhhhhhhhhhhhhhhhhhhhhhhhhhhh  31&$o",
"#;&;$$@@q  hhhhhhhhh hhhhhhhhhhhhhhhhhhhhhhhhhhhhhhhhhhhh  @Ooo3",
"=$%1-1-$3  hhhhhhhh> hhhhhhhhhhhhhhhhhhhhhhhhhhhhhhhhhhhh  @+@@;",
"&$&;&=3:;  hhhhhhhh>> hhhhhhhhhhh  hhhhhhhhhhhhhhhhhhhhh   +O++&",
"&#-=+;:;   hhhhhhhhh> hhhhhhhhhhh  hhhhhhhhhhhhhhhhhhhhh  +OoO@1",
"1;36301#  hhhhhhhhhh>> hhhhhhhhhhh  hhhhhhhhhh  hhhhhhhh  Oo++&3",
"06qq9q1&  hhhhhhhhhh>>> hhhhhhhhhh  hhhhhhhhh   hhhhhhh   oo+@$:",
"qqq63--;  hhhhhhhhhh>>> hhhhhhhhhhh  hhhhhhhh  hhhhhhhh  OO++##1",
"q6:=;%;=  hhhhhhhhhh >> hhhhhhhhhhh   hhhhhhh  hhhhhhh   ####+#1",
";@+O@;==  hhhhhhhhhh >>> hhhhhhhhhhh  hhhhhhh  hhhhhhh  #;;#OoO;",
"@OOo+$0q  hhhhhhhhhh >>> hhhhhhhhhhh  hhhhhhh  hhhhhhh  #$@ooo+#",
"++@+@$0q  hhhhhhhhhh >>>  hhhhhhhhhh   hhhhh   hhhhhh   ++OooO#$",
"+@##$$10  hhhhhhhhhh >>>>  hhhhhhhhhh  hhhh    hhhhhh  ;+OOoO#&;",
"++$;$#;1  hhhhhhhhh    >>>  hhhhhhhhh  hh     hhhhhh   1@OO+#@&;",
"+@13;@#&  hhhhhhhhh          hhhhhhhh         hhhhhh   0&+@##@$$",
"#301#@@=  hhhhhhhh   3:      hhhhhhhh     hh  hhhhhh  :73;&$#$&+",
"wu6=&$$:  hhhhhhhh  ;:7w930  hhhhhhh      hh  hhhhhh  $6686;;13;",
"sy1;;;%=  hhhhhhh   ;30r06q  hhhhhhh  oO  hh  hhhhhh  -1quiw;3qu",
"iq;;;;$&  hhhhhhh  ;130719  hhhhhhhh  O+  h   hhhhhh  rwruir39si",
":=&$&@+@   hhhhh   1:-=$;=  hhhhhhh  @++  h  hhhhhh   7qqq669iiy",
"&&$@+Oo+@  hhhhh  01$&&:3  hhhhhhhh  +O+  h  hhhhhh  =@&36-@3iy:",
"@@#+ooo+@  hhhhh  :#O@163  hhhhhhh  OO++  h hhhhhhh  +@:3q6;1q1&",
"$@OOoooO@  hhhhh  @O@;::  hhhhhhhh  &$@   h hhhhhhh  @$67q7#$@;:",
":+XooooO  hhhhhh  +O&=&  hhhhhhhh  iiy  hh  hhhhhhh  ;-8yr3#@++=",
"#+OXoooo  hhhhhh  #&;$@ hhhhhhhhh  if hhh  hhhhhhhhh  -rw7-;&++#",
"+@+XoooO hhhhhhhh ;&#@  hhhhhhhh  $68     hhhhhhhhhhh $6q33;;@+@",
"OO#@ooX  hhhhhhhh #OO@ h hhhhhhh ;:=48  hhhhhhhhhhhhh O=11:@$+O+",
"OO=3=+o hhhhhhhhh oo@;  h h hhh  #;;$= h  h hhhhhhhh  X;693$$++@",
"+@=0w6& h h h h h OO#$   h h h  @+@@@&   h  hh       +O@q03;&@+$",
"@@$-7wq   h h h   #$#+o   h h  OoOOOO$&        oO$1-;$+$76=-#+$&",
"@&=3668q         qwq91133     OooOOOO++@&13;@@+o+@$;;-=,q6131:1&",
"$:16:;3wrt66wyw36wtwww60q6603;#oo++OOOOO+=;#$@OO@@@@@-6wrwyaq06&",
"3111#@3wq1;;=00:3qty86;;&#&11&$oo#++O@+o#;+@&@+@@@@OO=qiaaiu031:"
};
