/* XPM */
static char *_48cb71080c244acb41bb74584600d647vWVTQw2Mg5NFHIh[] = {
/* columns rows colors chars-per-pixel */
"64 64 73 1 ",
"  c #008ACF",
". c #008ED3",
"X c #0091D6",
"o c #0095DB",
"O c #0896D9",
"+ c #0199DE",
"@ c #0B9BDD",
"# c #139DDD",
"$ c #14A0DF",
"% c #1AA1DE",
"& c #23A3DE",
"* c #2DA5DD",
"= c #31A6DD",
"- c #019DE3",
"; c #0A9FE1",
": c #00A1E6",
"> c #0CA2E5",
", c #00A2E8",
"< c #0CA6E8",
"1 c #13A4E4",
"2 c #1CA4E2",
"3 c #15A8E7",
"4 c #1DA9E6",
"5 c #10A7E9",
"6 c #13A8E9",
"7 c #1CABE9",
"8 c #23A6E3",
"9 c #29A7E0",
"0 c #25AAE5",
"q c #2BACE5",
"w c #23ADE9",
"e c #2BAFE9",
"r c #31AEE5",
"t c #3BADE2",
"y c #2CB1EA",
"u c #34B1E7",
"i c #33B3EA",
"p c #3BB6EB",
"a c #3EB8EC",
"s c #43B3E6",
"d c #4BB4E5",
"f c #43B6E9",
"g c #4AB7E9",
"h c #43B9EC",
"j c #4CBCEC",
"k c #53BDEC",
"l c #5BBEEA",
"z c #60BCE7",
"x c #64BFE9",
"c c #56C0EE",
"v c #5FC3F0",
"b c #71C6EE",
"n c #7BCBEF",
"m c #65C5F0",
"M c #69C6F0",
"N c #6EC9F0",
"B c #74CBF1",
"V c #7BCDF1",
"C c #82CFF1",
"Z c #84D1F2",
"A c #8CD3F2",
"S c #93D6F3",
"D c #9AD7F2",
"F c #96D8F3",
"G c #9CD9F4",
"H c #A3DBF4",
"J c #AADEF5",
"K c #B0DFF5",
"L c #AFE1F6",
"P c #B3E1F6",
"I c #BBE4F7",
"U c #C1E6F7",
"Y c #C8E8F7",
/* pixels */
",,,,,,,,,,,,,,,,,,,,,,,,,,,,,,,,,,,,,,,,,,,,,,,,,,,,,,,,,,,,,,,,",
",,,,,,,,,,,,,<,,,,,,,,,,,,,,,,,,,,,,,,,,,,,,,,,,,,,,,,,,,,,,,,,,",
",,,,,,,,,,,,5775<-,,,,,,,,,,,,,,,,,,,,,,,,,,,,,,,,,,,,,,,,,,,,,,",
",,,,,,,<<<57yiiy755<,,,,,,,,,,,-,,<,,<,,,,,,,,,,,,,,,,,,<,,,,,,,",
",,,<<<7eyippppppyww76<<,,,,,<,<<5565665<<-,,,,,,,,,<<<5555<,,,,,",
",,,<57yppphfiwwww7w476<,,,,,667eiiiee777<,,,,,,,,,,<6656565<,,,,",
",,,<53000q041>125;;;;5<,,,67wyhklvlkkhhhe75,,,,,,,,<66<<<<,,,,,,",
",,->-->;;---+-;-----,,,,<667wrgklxzllkkhay755<,,,,,,,,,,,,,,,,,,",
",,---------:--:----,,,,,-;;;##&&9=*9ttiiew75665<,,,,,,,,,,,,,,,,",
",,---,-,,,,,,,,,,,,,,,,,--ooXXoXooXo;;;;-,<<56<,,,,,,,,,,,,,,,,,",
",,,,,,,,,,,,,,,,,,,,,,,-----oo-----------,-,,,<,,,,,,,,,,,,,,,,,",
",,,,,,,,,,,,,,,,,,,,,,,,---,--,------,--,,,,,,,-,,,,,,,,,,,,,,,,",
",,,,,,,,,,,,,,,,,,,,,,,,,,,,,,,,,,,,,,,,,,,,,<<5666655;,,,,,,,,,",
",,,,,,,,,,,,,,,,,,,,,,,,,,,,,,,,,,,,,,,,,,,<677eyyiiiyy7<<<;,,,,",
",,,,,,,,,,,,,,,,,,,,,,,,,,,,,,,,-,,,,,,,,,,<7wweeipiuyrw56555<,,",
",,,,,,,,,,,,,,,,<6665,,,,,,,,,,,,,,,,,,,,,,<661121221$21;55566;,",
"-,,,,,,,,,,,<7wihmmVBMkvkhiy775<,,,,,,,,,,,,55---ooo-ooo---;;<,,",
",,,,,,,,,,7akMNVZFHIIILJDSZSCVmjyw6<<556555<-,---ooo----------,,",
",,,,,,<6wikVAAAAZSGKIUIPHDHKKJHANMmmkkkljhe7,,,,,,---,-----,,-,,",
",,,,,<7yaklbBlkhphlmbVCZbbnSHGGSAFSSSAAABky7;--,,,--,,,,--,,,,,,",
",,,,,5weeuu82;--o;280qtsssgkkkxxBVBVVCCxkr#;---,,,,,,,,,,,,,,,,,",
",,,,,,<;-o---oooXXoo-O@##%8qeqq9iy6wetp8-+o----,,,,,,,,,,,,,,,,,",
",,,,,----oo--ooXXoXXoo...oo--Oo----;;;>;o-o--,,,,,,,,,,,,,,,,,,,",
",,,,,,----o--------+ooXoo--oXo--------------,,,,,,,,,,,,,,,,,,,,",
",,,,,,,,,,---------,-----,------------,,,,,,,,,,,,,,,,,,,,,,,,,,",
",,,,,,,,,,,--,,,--,,,---,,,--,----,-,,,<,;<,,<,;,<,,,,,,,,,,,,,,",
",,,,,,,,,,,,,,,,,,,,,,,,,,,,,,,--,,<<5665555565155<<<,,,,,,,,,,,",
",,,,,,,-,,,,,,,,,,,,,,,,,,,,,,,-,<555566>111555551115<,,,,,,,,,,",
",,,,,<55556665<<,,,,,,,,,,,,,,---;55;;;;-Oo;;-;-;;;;;;,,,,,,,,,,",
",,<<66667eqeyyew77<,,,,,,,,-,-----------ooo+oooooooo---,,,,,,,,,",
",,6ww742wqqrruuyww6<,,,,,------o-o-,--------------------,,,,,,,,",
"<57w751111$11122676---------------,,,,,,,,-,,,,,----,--,,,,,,,,,",
"7665;;;----------,,---------,-----,,,-,,,,,,,,,,,,,,,,,,,,,,,,,,",
"<<,,---------,---,,------,,,,,,<<66<<6676,,,,,,,,,,,,,,,,,,,,,,,",
",,,,-------,,,,,,,,,,,,,,,,,,6677yijjjhhaiew6<,,,,,,,,,,,,,,,,,,",
",,,,,,----,,,,,,,,,,,,,,,,<<7wphjMVAFZBBVCAVNvjhpiw755555<,,,,,,",
",,,,,,,,-,,,,,,,,,,,,,,,<wpajxBVVAGSGSZSHPIPKKGCZAVvhhaiiy5,,,,,",
",,,,,,,,,,,,,,,,,,,,-<67ikmNbCSACVBmmNNVAHJIUYIHHKHSAZZBNcy,,,,,",
",,,,,,,,,,<<,,,,,,<<;5wypkmmlMBxjpyw7wyhjmBAGGSBZSASFFGAABcw75,,",
",,,,,,<<7677<<<,-<66557wwqq281$;-;<--,-weihjhhpeiipcvmNNBNjia7,,",
",,,,,<7wyyyy765<,;51;-;---oooooooo-o---;;@#;--------;118yi84w6,,",
",,,,<6w7eyyy766<,;;-------o--o-----oXooooX  XX.XXXoo-o----o---,,",
",,,,<555<576<,,,,--,----,,,,--,,,,--oXXoo X .    ..XXoo--oo--,,,",
",,,,,,,,,,,,,,,,,,,<<<6<5<5555<<<----oX---o-oXXoXXooo-------,,,,",
",,,,,,,,,,,,,,,,,,<66666667wwwwe76,----------------,,,-,,,,,,,,,",
",,,,,,,,,,,,,,,,,,<65<5<<<57w7eyy6<,---------,,,,,,,,,,,,,,,,,,,",
",,,,,,,,,,,,,,,,,,,<,-,---,-,<$86;--,,-----,,,,,,,,,,,,,,,,,,,,,",
",,,,,,,,,,,,,,,,,,,,,---------------,,,,--,,<<766655<<<<,,,,,,,,",
",,,,,,,,,,,,,,,,,,,,,,--------------,,,,,,;57yphpeiyew76<,,,,,,,",
",,,,,,,,,,<7yyww7w775,,,,,,-,----,,,,,,,,,<wweffpyphfpye755<<,,,",
",,,,,,,<5ihmBVMvlkgfaiw7<5<,,,,,,,,,,,,,,,;61##21$4wqye77676<,,,",
",,,,,,5ealBCSGSASAVCVBMkhpe<,,,,,,,,,,,,,--;-o.Xo--;;151;<;<<-,,",
":,:,,5wpkkllMVZZASCDSGGABBxjhaie77<,,,,,,,---o.oo------o------,,",
":----108q8##wihhlzxxnAACVBVZZACBxka7e75,,,,----o------o-o----,,,",
":-+-+OOOX.Xoo--;@#%8egkfhkkxCSSCBMjippe,,,,,,,,,-,,-------,,,,,,",
"-----o.XXXXooooXXXXXooO+-;#&esdttsuyey7,,,,,,,,,,,,-----,-,,,,,,",
",,---;o--;----ooOX....   o..OOXoo##-;-,,,,,,,,,,,,,,--,,,,,,,,,,",
",,,57wewwew7155;-X....   ...ooooo-----,,,,,,,,,,,,,,,,,,,,,,,,,,",
",<<7epahhjjhiew21-++-+o.ooo-o-----,<,<<<<<5;<,,,,,,,,,,,,,,,,,,,",
",,<weeuufggfiq2$----------,,,,,,,577ew7w77ww7<<,,,,,,,,,,,,,,,,,",
",,<665;###2$$O;oo-::,,,,,,,,,,<<56qieerueere8755<<,,,,,,,,,,,,,,",
"-,,,,----o-------:,,,,,,,,,,,,<66788828888&$17656<,,,,,,,,,,,,,,",
",,,,,-----------,,,,,,,,,,,,,,,5<<;+o;O;##;--;<5<<,,,,,,,,,,,,,,",
",,,,,,,,--,,,,,-,,,,,,,,,,,,,,,,,,---o--o----,,,,,,,,,,,,,,,,,,,"
};
